<?xml version="1.0" encoding="utf-8"?>
<svg id="master-artboard" viewBox="0 0 1500 800" version="1.1" xmlns="http://www.w3.org/2000/svg" x="0px" y="0px" style="enable-background:new 0 0 1400 980;" width="1500px" height="800px"><defs><style id="ee-google-fonts">@import url(https://fonts.googleapis.com/css?family=Kotta+One:400);</style></defs><rect id="ee-background" x="0" y="0" width="1500" height="800" style="fill: white; fill-opacity: 0; pointer-events: none;"/><g transform="matrix(1.7433491945266724, 0, 0, 1.7433491945266724, -20.439227575018208, 171.2165213168452)"><g transform="matrix(1, 0, 0, 1, -40.921249389648494, -168.23179626464844)"><g transform="matrix(1, 0, 0, 1, 0, 0)">
				<g>
					<path class="st0" d="M300.6,297.9c-4.9,1.8-10.4-0.7-12.1-5.7l0,0c-1.8-4.9,0.7-10.4,5.7-12.1l2.8-1l-3.1-8.6l-2.8,1&#10;&#9;&#9;&#9;&#9;&#9;&#9;c-4.9,1.8-10.4-0.7-12.1-5.7v0c-1.8-4.9,0.7-10.4,5.7-12.1l2.8-1l-3.8-10.6c-13.5,4.9-28.5-2.1-33.4-15.6l-147.2,53.6&#10;&#9;&#9;&#9;&#9;&#9;&#9;c4.9,13.5-2.1,28.5-15.6,33.4l3.8,10.6l2.8-1c4.9-1.8,10.4,0.7,12.1,5.7l0,0c1.8,4.9-0.7,10.4-5.7,12.1l-2.8,1l3.1,8.6l2.8-1&#10;&#9;&#9;&#9;&#9;&#9;&#9;c4.9-1.8,10.4,0.7,12.1,5.7h0c1.8,4.9-0.7,10.4-5.7,12.1l-2.8,1l3.8,10.6c13.5-4.9,28.5,2.1,33.4,15.6l147.2-53.6&#10;&#9;&#9;&#9;&#9;&#9;&#9;c-4.9-13.5,2.1-28.5,15.6-33.4l-3.8-10.6L300.6,297.9z" style="fill: rgb(240, 86, 99);"/>
					<path class="st1" d="M144.4,396.7c-0.9,0-1.8-0.6-2.1-1.5c-2.2-6-6.6-10.8-12.3-13.5c-5.8-2.7-12.2-3-18.2-0.8&#10;&#9;&#9;&#9;&#9;&#9;&#9;c-0.6,0.2-1.2,0.2-1.7-0.1c-0.5-0.3-1-0.7-1.2-1.3l-3.8-10.6c-0.4-1.2,0.2-2.4,1.3-2.9l2.8-1c1.8-0.7,3.3-2,4.1-3.7&#10;&#9;&#9;&#9;&#9;&#9;&#9;c0.8-1.8,0.9-3.7,0.2-5.5c-0.7-1.8-2-3.3-3.7-4.1c-1.8-0.8-3.7-0.9-5.5-0.2l-2.8,1c-1.2,0.4-2.4-0.2-2.9-1.3l-3.1-8.6&#10;&#9;&#9;&#9;&#9;&#9;&#9;c-0.2-0.6-0.2-1.2,0.1-1.7c0.3-0.5,0.7-1,1.3-1.2l2.8-1c1.8-0.7,3.3-2,4.1-3.7c0.8-1.8,0.9-3.7,0.2-5.5c-0.7-1.8-2-3.3-3.7-4.1&#10;&#9;&#9;&#9;&#9;&#9;&#9;c-1.8-0.8-3.7-0.9-5.5-0.2l-2.8,1c-1.2,0.4-2.4-0.2-2.9-1.3l-3.9-10.6c-0.4-1.2,0.2-2.4,1.3-2.9c6-2.2,10.8-6.6,13.5-12.3&#10;&#9;&#9;&#9;&#9;&#9;&#9;c2.7-5.8,3-12.2,0.8-18.2c-0.4-1.2,0.2-2.4,1.3-2.9l147.2-53.6c0.6-0.2,1.2-0.2,1.7,0.1c0.5,0.3,1,0.7,1.2,1.3&#10;&#9;&#9;&#9;&#9;&#9;&#9;c2.2,6,6.6,10.8,12.3,13.5c5.8,2.7,12.2,3,18.2,0.8c0.6-0.2,1.2-0.2,1.7,0.1c0.5,0.3,1,0.7,1.2,1.3l3.8,10.6&#10;&#9;&#9;&#9;&#9;&#9;&#9;c0.4,1.2-0.2,2.4-1.3,2.9l-2.8,1c-3.7,1.4-5.7,5.5-4.3,9.3c1.4,3.7,5.5,5.7,9.3,4.3l2.8-1c0.6-0.2,1.2-0.2,1.7,0.1&#10;&#9;&#9;&#9;&#9;&#9;&#9;c0.5,0.3,1,0.7,1.2,1.3l3.1,8.6c0.4,1.2-0.2,2.4-1.3,2.9l-2.8,1c-3.7,1.4-5.7,5.5-4.3,9.3c1.4,3.7,5.5,5.7,9.3,4.3v0l2.8-1&#10;&#9;&#9;&#9;&#9;&#9;&#9;c1.2-0.4,2.4,0.2,2.9,1.3l3.9,10.6c0.2,0.6,0.2,1.2-0.1,1.7c-0.3,0.5-0.7,1-1.3,1.2c-6,2.2-10.8,6.6-13.5,12.3&#10;&#9;&#9;&#9;&#9;&#9;&#9;c-2.7,5.8-3,12.2-0.8,18.2c0.4,1.2-0.2,2.4-1.3,2.9l-147.2,53.6C145,396.7,144.7,396.7,144.4,396.7z M120,375.1&#10;&#9;&#9;&#9;&#9;&#9;&#9;c4.1,0,8.1,0.9,11.9,2.7c6.2,2.9,11,7.8,13.8,13.9l143.2-52.1c-3.7-13.4,2.9-27.6,15.5-33.3l-2.4-6.5l-0.7,0.3&#10;&#9;&#9;&#9;&#9;&#9;&#9;c-2.9,1.1-6.1,0.9-9-0.4c-2.8-1.3-5-3.7-6.1-6.6c-2.2-6.1,0.9-12.8,7-15l0.7-0.3l-1.6-4.4l-0.7,0.3c-6.1,2.2-12.8-0.9-15-7&#10;&#9;&#9;&#9;&#9;&#9;&#9;c-1.1-2.9-0.9-6.1,0.4-9c1.3-2.8,3.7-5,6.6-6.1l0.7-0.3l-2.3-6.5c-6.5,1.8-13.3,1.3-19.5-1.6c-6.2-2.9-11-7.8-13.8-13.9&#10;&#9;&#9;&#9;&#9;&#9;&#9;l-143.2,52.1c1.8,6.5,1.3,13.3-1.6,19.5c-2.9,6.2-7.8,11-13.9,13.8l2.3,6.5l0.7-0.3c2.9-1.1,6.1-0.9,9,0.4&#10;&#9;&#9;&#9;&#9;&#9;&#9;c2.8,1.3,5,3.7,6.1,6.6c1.1,2.9,0.9,6.1-0.4,9c-1.3,2.8-3.7,5-6.6,6.1l-0.7,0.3l1.6,4.4l0.7-0.3c2.9-1.1,6.1-0.9,9,0.4&#10;&#9;&#9;&#9;&#9;&#9;&#9;c2.8,1.3,5,3.7,6.1,6.6c1.1,2.9,0.9,6.1-0.4,9c-1.3,2.8-3.7,5-6.6,6.1l-0.7,0.3l2.3,6.5C114.9,375.4,117.4,375.1,120,375.1z" style="fill: rgb(80, 45, 26);"/>
					
						<path d="M 131.399994 271.5 H 263.099991 V 349.5 H 131.399994 V 271.5 Z" transform="matrix(0.9397 -0.342 0.342 0.9397 -94.3006 86.1926)" class="st2" style="fill: rgb(244, 154, 165);"/>
					<path class="st1" d="M148.7,371.3c-0.2,0-0.5-0.1-0.7-0.1c-0.4-0.2-0.7-0.5-0.8-0.9l-26.7-73.3c-0.3-0.8,0.1-1.7,1-2l13.3-4.8&#10;&#9;&#9;&#9;&#9;&#9;&#9;c0.8-0.3,1.7,0.1,2,1c0.3,0.8-0.1,1.7-1,2l-11.8,4.3l25.6,70.3l120.8-44l-25.6-70.3L161,283.9c-0.8,0.3-1.7-0.1-2-1&#10;&#9;&#9;&#9;&#9;&#9;&#9;c-0.3-0.8,0.1-1.7,1-2l85.4-31.1c0.4-0.1,0.8-0.1,1.2,0.1c0.4,0.2,0.7,0.5,0.8,0.9l26.7,73.3c0.3,0.8-0.1,1.7-1,2l-123.8,45.1&#10;&#9;&#9;&#9;&#9;&#9;&#9;C149.1,371.2,148.9,371.3,148.7,371.3z" style="fill: rgb(80, 45, 26);"/>
					<path class="st1" d="M144.5,289.8c-0.7,0-1.3-0.4-1.5-1.1c-0.3-0.8,0.1-1.7,1-2l6.7-2.4c0.8-0.3,1.7,0.1,2,1&#10;&#9;&#9;&#9;&#9;&#9;&#9;c0.3,0.8-0.1,1.7-1,2l-6.7,2.4C144.9,289.7,144.7,289.8,144.5,289.8z" style="fill: rgb(80, 45, 26);"/>
					<g>
						<path class="st1" d="M188.4,305.6l-14.2,3.8l-10-10.7c-1.5-1.7-4.3-0.6-4.4,1.6l-0.7,14.6l-13.3,6.2c-2.1,1-2,3.9,0.2,4.7&#10;&#9;&#9;&#9;&#9;&#9;&#9;&#9;l13.7,5.2l1.8,14.6c0.3,2.2,3.1,3.1,4.5,1.3l9.2-11.4l14.4,2.8c2.2,0.4,3.9-2,2.6-3.9l-8-12.3l7.1-12.8&#10;&#9;&#9;&#9;&#9;&#9;&#9;&#9;C192.4,307.4,190.6,305.1,188.4,305.6z" style="fill: rgb(80, 45, 26);"/>
						<path class="st1" d="M243.6,285.6l-14.2,3.8l-10-10.7c-1.5-1.7-4.3-0.6-4.4,1.6l-0.7,14.6l-13.3,6.2c-2.1,1-2,3.9,0.2,4.7&#10;&#9;&#9;&#9;&#9;&#9;&#9;&#9;l13.7,5.2l1.8,14.6c0.3,2.2,3.1,3.1,4.5,1.3l9.2-11.4l14.4,2.8c2.2,0.4,3.9-2,2.6-3.9l-8-12.3l7.1-12.8&#10;&#9;&#9;&#9;&#9;&#9;&#9;&#9;C247.6,287.3,245.8,285,243.6,285.6z" style="fill: rgb(80, 45, 26);"/>
					</g>
				</g>
				<g>
					<path class="st3" d="M334.9,377.7c-5.2,0-9.5-4.2-9.5-9.5v0c0-5.2,4.2-9.5,9.5-9.5h3v-9.1h-3c-5.2,0-9.5-4.2-9.5-9.5l0,0&#10;&#9;&#9;&#9;&#9;&#9;&#9;c0-5.2,4.2-9.5,9.5-9.5h3v-11.3c-14.4,0-26.1-11.7-26.1-26.1H155.1c0,14.4-11.7,26.1-26.1,26.1v11.3h3c5.2,0,9.5,4.2,9.5,9.5&#10;&#9;&#9;&#9;&#9;&#9;&#9;l0,0c0,5.2-4.2,9.5-9.5,9.5h-3v9.1h3c5.2,0,9.5,4.2,9.5,9.5v0c0,5.2-4.2,9.5-9.5,9.5h-3V389c14.4,0,26.1,11.7,26.1,26.1h156.7&#10;&#9;&#9;&#9;&#9;&#9;&#9;c0-14.4,11.7-26.1,26.1-26.1v-11.3H334.9z" style="fill: rgb(255, 208, 103);"/>
					<path class="st1" d="M311.8,417.3H155.1c-1.2,0-2.2-1-2.2-2.2c0-13.1-10.7-23.8-23.8-23.8c-1.2,0-2.2-1-2.2-2.2v-11.3&#10;&#9;&#9;&#9;&#9;&#9;&#9;c0-1.2,1-2.2,2.2-2.2h3c4,0,7.2-3.2,7.2-7.2c0-4-3.2-7.2-7.2-7.2h-3c-1.2,0-2.2-1-2.2-2.2v-9.1c0-1.2,1-2.2,2.2-2.2h3&#10;&#9;&#9;&#9;&#9;&#9;&#9;c4,0,7.2-3.2,7.2-7.2c0-4-3.2-7.2-7.2-7.2h-3c-1.2,0-2.2-1-2.2-2.2v-11.3c0-1.2,1-2.2,2.2-2.2c13.1,0,23.8-10.7,23.8-23.8&#10;&#9;&#9;&#9;&#9;&#9;&#9;c0-1.2,1-2.2,2.2-2.2h156.7c1.2,0,2.2,1,2.2,2.2c0,13.1,10.7,23.8,23.8,23.8c1.2,0,2.2,1,2.2,2.2v11.3c0,1.2-1,2.2-2.2,2.2h-3&#10;&#9;&#9;&#9;&#9;&#9;&#9;c-4,0-7.2,3.2-7.2,7.2c0,4,3.2,7.2,7.2,7.2h3c1.2,0,2.2,1,2.2,2.2v9.1c0,1.2-1,2.2-2.2,2.2h-3c-4,0-7.2,3.2-7.2,7.2&#10;&#9;&#9;&#9;&#9;&#9;&#9;c0,4,3.2,7.2,7.2,7.2h3c1.2,0,2.2,1,2.2,2.2V389c0,1.2-1,2.2-2.2,2.2c-13.1,0-23.8,10.7-23.8,23.8&#10;&#9;&#9;&#9;&#9;&#9;&#9;C314,416.3,313,417.3,311.8,417.3z M157.2,412.8h152.4c1.1-13.8,12.2-24.9,26-26v-6.9h-0.8c-6.5,0-11.7-5.3-11.7-11.7&#10;&#9;&#9;&#9;&#9;&#9;&#9;c0-6.5,5.3-11.7,11.7-11.7h0.8v-4.7h-0.8c-6.5,0-11.7-5.3-11.7-11.7s5.3-11.7,11.7-11.7h0.8v-6.9c-13.8-1.1-24.9-12.2-26-26&#10;&#9;&#9;&#9;&#9;&#9;&#9;H157.2c-1.1,13.8-12.2,24.9-26,26v6.9h0.8c6.5,0,11.7,5.3,11.7,11.7s-5.3,11.7-11.7,11.7h-0.8v4.7h0.8&#10;&#9;&#9;&#9;&#9;&#9;&#9;c6.5,0,11.7,5.3,11.7,11.7c0,6.5-5.3,11.7-11.7,11.7h-0.8v6.9C145.1,387.9,156.2,399,157.2,412.8z" style="fill: rgb(80, 45, 26);"/>
					<path d="M 167.600006 315.200012 H 299.300003 V 393.200012 H 167.600006 V 315.200012 Z" class="st4" style="fill: rgb(244, 216, 168);"/>
					<path class="st1" d="M299.3,394.8H167.6c-0.9,0-1.6-0.7-1.6-1.6v-78c0-0.9,0.7-1.6,1.6-1.6h14.2c0.9,0,1.6,0.7,1.6,1.6&#10;&#9;&#9;&#9;&#9;&#9;&#9;s-0.7,1.6-1.6,1.6h-12.6v74.8h128.5v-74.8h-89.2c-0.9,0-1.6-0.7-1.6-1.6s0.7-1.6,1.6-1.6h90.8c0.9,0,1.6,0.7,1.6,1.6v78&#10;&#9;&#9;&#9;&#9;&#9;&#9;C300.9,394.1,300.2,394.8,299.3,394.8z" style="fill: rgb(80, 45, 26);"/>
					<path class="st1" d="M198.7,316.8h-7.1c-0.9,0-1.6-0.7-1.6-1.6s0.7-1.6,1.6-1.6h7.1c0.9,0,1.6,0.7,1.6,1.6&#10;&#9;&#9;&#9;&#9;&#9;&#9;S199.6,316.8,198.7,316.8z" style="fill: rgb(80, 45, 26);"/>
					<g>
						<path class="st1" d="M226.7,346.6l-14.6-1.3l-5.7-13.5c-0.9-2.1-3.8-2.1-4.7,0l-5.7,13.5l-14.6,1.3c-2.3,0.2-3.2,3-1.5,4.5&#10;&#9;&#9;&#9;&#9;&#9;&#9;&#9;l11.1,9.6l-3.3,14.3c-0.5,2.2,1.9,3.9,3.8,2.8l12.6-7.6l12.6,7.6c1.9,1.2,4.3-0.6,3.8-2.8l-3.3-14.3l11.1-9.6&#10;&#9;&#9;&#9;&#9;&#9;&#9;&#9;C229.9,349.6,229,346.8,226.7,346.6z" style="fill: rgb(80, 45, 26);"/>
						<path class="st1" d="M285.5,346.6l-14.6-1.3l-5.7-13.5c-0.9-2.1-3.8-2.1-4.7,0l-5.7,13.5l-14.6,1.3c-2.3,0.2-3.2,3-1.5,4.5&#10;&#9;&#9;&#9;&#9;&#9;&#9;&#9;l11.1,9.6l-3.3,14.3c-0.5,2.2,1.9,3.9,3.8,2.8l12.6-7.6l12.6,7.6c1.9,1.2,4.3-0.6,3.8-2.8l-3.3-14.3l11.1-9.6&#10;&#9;&#9;&#9;&#9;&#9;&#9;&#9;C288.7,349.6,287.7,346.8,285.5,346.6z" style="fill: rgb(80, 45, 26);"/>
					</g>
				</g>
			</g></g></g><path d="M 737.5289306640625 337 C 736.5089111328125 337.38665771484375 735.9989013671875 338.1333312988281 735.9989013671875 339.239990234375 C 735.9989013671875 340.35333251953125 736.9022216796875 341.42999267578125 738.7089233398438 342.4700012207031 C 740.2289428710938 343.336669921875 741.3289184570312 344.1199951171875 742.0089111328125 344.82000732421875 C 742.6889038085938 345.52667236328125 743.0289306640625 346.2799987792969 743.0289306640625 347.0799865722656 C 743.0289306640625 348.85333251953125 742.465576171875 350.1966552734375 741.3389282226562 351.1099853515625 C 740.20556640625 352.0233459472656 738.6256103515625 352.4800109863281 736.5989379882812 352.4800109863281 C 734.118896484375 352.4800109863281 732.638916015625 351.9200134277344 732.158935546875 350.79998779296875 C 732.4922485351562 350.1933288574219 732.7622680664062 349.3999938964844 732.9689331054688 348.4200134277344 L 733.0889282226562 347.94000244140625 C 733.4888916015625 347.79998779296875 733.9222412109375 347.7300109863281 734.388916015625 347.7300109863281 C 734.2622680664062 348.0833435058594 734.1989135742188 348.489990234375 734.1989135742188 348.95001220703125 C 734.1989135742188 349.7366638183594 734.4055786132812 350.2733459472656 734.8189086914062 350.55999755859375 L 739.618896484375 350.55999755859375 C 740.5656127929688 349.9666748046875 741.0389404296875 349.10333251953125 741.0389404296875 347.9700012207031 C 741.0389404296875 347.2300109863281 740.7489013671875 346.5466613769531 740.1689453125 345.9200134277344 C 739.5955810546875 345.28668212890625 738.70556640625 344.6166687011719 737.4989013671875 343.9100036621094 C 736.2855834960938 343.2099914550781 735.4255981445312 342.60333251953125 734.9189453125 342.0899963378906 C 734.4055786132812 341.57666015625 734.14892578125 340.9266662597656 734.14892578125 340.1400146484375 C 734.14892578125 338.52667236328125 734.6922607421875 337.32000732421875 735.7789306640625 336.5199890136719 C 736.8656005859375 335.7200012207031 738.2988891601562 335.32000732421875 740.0789184570312 335.32000732421875 C 740.9055786132812 335.32000732421875 741.6455688476562 335.4599914550781 742.2988891601562 335.739990234375 C 742.945556640625 336.0199890136719 743.332275390625 336.3599853515625 743.4589233398438 336.760009765625 C 743.1256103515625 337.3666687011719 742.8455810546875 338.1600036621094 742.618896484375 339.1400146484375 L 742.5189208984375 339.6199951171875 C 742.118896484375 339.760009765625 741.6889038085938 339.8299865722656 741.2289428710938 339.8299865722656 C 741.3555908203125 339.4766540527344 741.4189453125 339.07000732421875 741.4189453125 338.6099853515625 C 741.4189453125 337.8233337402344 741.2122802734375 337.28668212890625 740.7988891601562 337 L 737.5289306640625 337 ZM 756.614501953125 350.55999755859375 C 756.614501953125 350.9266662597656 756.5345458984375 351.2699890136719 756.37451171875 351.5899963378906 C 755.3012084960938 351.7166748046875 754.3311767578125 351.97332763671875 753.4645385742188 352.3599853515625 C 753.2245483398438 352.3599853515625 753.0211791992188 352.2733459472656 752.8545532226562 352.1000061035156 C 752.6878662109375 351.9200134277344 752.6045532226562 351.64666748046875 752.6045532226562 351.2799987792969 L 753.0545043945312 347.8500061035156 L 752.8145141601562 347.70001220703125 C 752.2278442382812 349.1400146484375 751.6278686523438 350.25665283203125 751.0145263671875 351.04998779296875 C 750.4078369140625 351.84332275390625 749.6078491210938 352.239990234375 748.614501953125 352.239990234375 C 747.6278686523438 352.239990234375 746.7978515625 351.8766784667969 746.12451171875 351.1499938964844 C 745.451171875 350.42333984375 745.114501953125 349.4333190917969 745.114501953125 348.17999267578125 C 745.114501953125 346.1199951171875 745.731201171875 344.32000732421875 746.9645385742188 342.7799987792969 C 748.1978759765625 341.2466735839844 749.7245483398438 340.4800109863281 751.5445556640625 340.4800109863281 C 752.1378784179688 340.4800109863281 752.8112182617188 340.71331787109375 753.5645141601562 341.17999267578125 C 753.5978393554688 340.88665771484375 753.6278686523438 340.6533203125 753.654541015625 340.4800109863281 C 754.4545288085938 340.239990234375 755.2145385742188 340.1199951171875 755.9345092773438 340.1199951171875 C 755.634521484375 341.35333251953125 755.384521484375 342.67999267578125 755.1845092773438 344.1000061035156 C 754.9845581054688 345.52667236328125 754.787841796875 347.67999267578125 754.5945434570312 350.55999755859375 L 756.614501953125 350.55999755859375 M 746.9345092773438 347.510009765625 C 746.9345092773438 348.2166748046875 747.0945434570312 348.85333251953125 747.41455078125 349.4200134277344 C 747.7345581054688 349.9866638183594 748.0945434570312 350.3666687011719 748.4945068359375 350.55999755859375 L 749.654541015625 350.55999755859375 C 750.5811767578125 350.38665771484375 751.7078857421875 348.7066650390625 753.0345458984375 345.5199890136719 C 753.1011962890625 344.8466796875 753.2278442382812 343.7266540527344 753.41455078125 342.1600036621094 L 749.5745239257812 342.1600036621094 C 748.9545288085938 342.2733459472656 748.3612060546875 342.8933410644531 747.7945556640625 344.0199890136719 C 747.22119140625 345.14666748046875 746.9345092773438 346.30999755859375 746.9345092773438 347.510009765625 ZM 763.5480346679688 352.239990234375 C 762.9547119140625 352.239990234375 762.2813720703125 352.1266784667969 761.528076171875 351.8999938964844 C 761.334716796875 353.8399963378906 761.2080688476562 355.4333190917969 761.1480712890625 356.67999267578125 L 763.0380249023438 357.0899963378906 C 763.0380249023438 357.4566650390625 762.9580688476562 357.79998779296875 762.7980346679688 358.1199951171875 C 761.51806640625 357.9599914550781 760.6647338867188 357.8800048828125 760.238037109375 357.8800048828125 C 759.4847412109375 357.8800048828125 758.6347045898438 357.9366760253906 757.6880493164062 358.04998779296875 L 757.238037109375 358.1199951171875 C 757.238037109375 357.7533264160156 757.3180541992188 357.4100036621094 757.47802734375 357.0899963378906 C 758.064697265625 356.9433288574219 758.5913696289062 356.7266540527344 759.0580444335938 356.44000244140625 C 759.4580688476562 353.99334716796875 759.7446899414062 351.82000732421875 759.9180297851562 349.9200134277344 C 760.0980224609375 348.02667236328125 760.2847290039062 345.44000244140625 760.47802734375 342.1600036621094 L 758.718017578125 342.1600036621094 C 758.718017578125 341.7933349609375 758.7980346679688 341.45001220703125 758.9580688476562 341.1300048828125 C 759.8713989257812 341.0033264160156 760.7613525390625 340.7466735839844 761.6280517578125 340.3599853515625 C 761.8480224609375 340.3599853515625 762.0480346679688 340.4599914550781 762.22802734375 340.6600036621094 C 762.4013671875 340.8599853515625 762.488037109375 341.1199951171875 762.488037109375 341.44000244140625 L 762.0380249023438 344.8699951171875 L 762.278076171875 345.0199890136719 C 762.8646850585938 343.5799865722656 763.4647216796875 342.46331787109375 764.0780639648438 341.6700134277344 C 764.6846923828125 340.8766784667969 765.4847412109375 340.4800109863281 766.47802734375 340.4800109863281 C 767.4647216796875 340.4800109863281 768.2947387695312 340.84332275390625 768.968017578125 341.57000732421875 C 769.641357421875 342.2966613769531 769.97802734375 343.28668212890625 769.97802734375 344.5400085449219 C 769.97802734375 346.6000061035156 769.3613891601562 348.3999938964844 768.1280517578125 349.94000244140625 C 766.8947143554688 351.47332763671875 765.3680419921875 352.239990234375 763.5480346679688 352.239990234375 M 768.1580200195312 345.2099914550781 C 768.1580200195312 344.5033264160156 767.998046875 343.8666687011719 767.6780395507812 343.29998779296875 C 767.3580322265625 342.73333740234375 766.998046875 342.35333251953125 766.5980224609375 342.1600036621094 L 765.4380493164062 342.1600036621094 C 764.4513549804688 342.35333251953125 763.3080444335938 344.0733337402344 762.008056640625 347.32000732421875 L 761.6480712890625 350.55999755859375 L 765.51806640625 350.55999755859375 C 766.1380615234375 350.4466552734375 766.7313842773438 349.82666015625 767.2980346679688 348.70001220703125 C 767.8713989257812 347.5733337402344 768.1580200195312 346.4100036621094 768.1580200195312 345.2099914550781 ZM 783.2777099609375 350.55999755859375 C 783.2777099609375 350.9266662597656 783.19775390625 351.2699890136719 783.0377197265625 351.5899963378906 C 781.9644165039062 351.7166748046875 780.994384765625 351.97332763671875 780.1277465820312 352.3599853515625 C 779.8877563476562 352.3599853515625 779.6843872070312 352.2733459472656 779.5177612304688 352.1000061035156 C 779.35107421875 351.9200134277344 779.2677612304688 351.64666748046875 779.2677612304688 351.2799987792969 L 779.7177124023438 347.8500061035156 L 779.4777221679688 347.70001220703125 C 778.8910522460938 349.1400146484375 778.2910766601562 350.25665283203125 777.677734375 351.04998779296875 C 777.071044921875 351.84332275390625 776.2710571289062 352.239990234375 775.2777099609375 352.239990234375 C 774.2910766601562 352.239990234375 773.4610595703125 351.8766784667969 772.7877197265625 351.1499938964844 C 772.1143798828125 350.42333984375 771.7777099609375 349.4333190917969 771.7777099609375 348.17999267578125 C 771.7777099609375 346.1199951171875 772.3944091796875 344.32000732421875 773.6277465820312 342.7799987792969 C 774.861083984375 341.2466735839844 776.3877563476562 340.4800109863281 778.207763671875 340.4800109863281 C 778.8010864257812 340.4800109863281 779.4744262695312 340.71331787109375 780.2277221679688 341.17999267578125 C 780.2610473632812 340.88665771484375 780.2910766601562 340.6533203125 780.3177490234375 340.4800109863281 C 781.1177368164062 340.239990234375 781.8777465820312 340.1199951171875 782.5977172851562 340.1199951171875 C 782.2977294921875 341.35333251953125 782.0477294921875 342.67999267578125 781.8477172851562 344.1000061035156 C 781.6477661132812 345.52667236328125 781.4510498046875 347.67999267578125 781.2577514648438 350.55999755859375 L 783.2777099609375 350.55999755859375 M 773.5977172851562 347.510009765625 C 773.5977172851562 348.2166748046875 773.7577514648438 348.85333251953125 774.0777587890625 349.4200134277344 C 774.3977661132812 349.9866638183594 774.7577514648438 350.3666687011719 775.15771484375 350.55999755859375 L 776.3177490234375 350.55999755859375 C 777.244384765625 350.38665771484375 778.37109375 348.7066650390625 779.69775390625 345.5199890136719 C 779.764404296875 344.8466796875 779.8910522460938 343.7266540527344 780.0777587890625 342.1600036621094 L 776.2377319335938 342.1600036621094 C 775.6177368164062 342.2733459472656 775.0244140625 342.8933410644531 774.457763671875 344.0199890136719 C 773.8843994140625 345.14666748046875 773.5977172851562 346.30999755859375 773.5977172851562 347.510009765625 ZM 785.961181640625 336.5400085449219 C 785.961181640625 336.17333984375 786.0411987304688 335.8299865722656 786.201171875 335.510009765625 C 787.481201171875 335.6233215332031 788.4178466796875 335.67999267578125 789.0111694335938 335.67999267578125 L 797.501220703125 335.67999267578125 C 797.6478881835938 335.8066711425781 797.77783203125 336.00665283203125 797.8911743164062 336.2799987792969 C 797.5512084960938 336.8733215332031 797.27783203125 337.59332275390625 797.0711669921875 338.44000244140625 L 796.951171875 338.8500061035156 C 796.6311645507812 338.989990234375 796.2412109375 339.05999755859375 795.7811889648438 339.05999755859375 C 795.9212036132812 338.4200134277344 795.9912109375 337.94000244140625 795.9912109375 337.6199951171875 C 795.9912109375 337.29998779296875 795.8712158203125 337.09332275390625 795.6311645507812 337 L 789.8012084960938 337 C 789.4945068359375 339.6266784667969 789.287841796875 341.6666564941406 789.1812133789062 343.1199951171875 L 794.5512084960938 343.1199951171875 C 794.8112182617188 342.73333740234375 795.0045166015625 342.29998779296875 795.1311645507812 341.82000732421875 C 795.2445068359375 341.7733459472656 795.404541015625 341.75 795.6112060546875 341.75 L 796.1411743164062 341.8500061035156 C 795.8012084960938 342.9033203125 795.5512084960938 344.2533264160156 795.3911743164062 345.8999938964844 C 795.2645263671875 345.9666748046875 795.1045532226562 346 794.9111938476562 346 L 794.501220703125 345.92999267578125 C 794.501220703125 345.2900085449219 794.4378662109375 344.7533264160156 794.3112182617188 344.32000732421875 L 789.1011962890625 344.32000732421875 C 788.9745483398438 346.14666748046875 788.8478393554688 348.29998779296875 788.72119140625 350.7799987792969 L 790.6912231445312 351.1400146484375 C 790.6912231445312 351.50665283203125 790.6112060546875 351.8500061035156 790.451171875 352.1700134277344 C 789.12451171875 352.0566711425781 788.1878662109375 352 787.6411743164062 352 C 786.87451171875 352 786.0512084960938 352.0466613769531 785.1712036132812 352.1400146484375 L 784.8112182617188 352.1700134277344 C 784.8112182617188 351.8033447265625 784.8911743164062 351.4599914550781 785.0512084960938 351.1400146484375 C 785.6912231445312 350.9466552734375 786.2344970703125 350.65667724609375 786.6812133789062 350.2699890136719 C 787.0945434570312 346.75 787.4545288085938 342.32000732421875 787.7611694335938 336.9800109863281 L 785.961181640625 336.5400085449219 ZM 805.9505615234375 350.55999755859375 C 805.9505615234375 350.9266662597656 805.8705444335938 351.2699890136719 805.7105712890625 351.5899963378906 C 804.0172119140625 352.0233459472656 802.8038940429688 352.239990234375 802.070556640625 352.239990234375 C 799.3171997070312 352.239990234375 797.9405517578125 350.74334716796875 797.9405517578125 347.75 C 797.9405517578125 346.6499938964844 798.1805419921875 345.54998779296875 798.6605224609375 344.45001220703125 C 799.1405639648438 343.3566589355469 799.8705444335938 342.4200134277344 800.8505249023438 341.6400146484375 C 801.8372192382812 340.8666687011719 802.953857421875 340.4800109863281 804.2005615234375 340.4800109863281 C 804.9871826171875 340.4800109863281 805.5639038085938 340.67999267578125 805.9305419921875 341.0799865722656 C 806.2972412109375 341.4800109863281 806.4805297851562 341.9666748046875 806.4805297851562 342.5400085449219 C 806.4805297851562 345.4200134277344 804.223876953125 346.9100036621094 799.7105712890625 347.010009765625 C 799.7105712890625 349.2033386230469 800.3671875 350.38665771484375 801.6805419921875 350.55999755859375 L 805.9505615234375 350.55999755859375 M 804.800537109375 343.1400146484375 C 804.800537109375 342.61334228515625 804.5772094726562 342.28668212890625 804.1305541992188 342.1600036621094 L 801.9205322265625 342.1600036621094 C 801.3938598632812 342.3666687011719 800.9371948242188 342.82666015625 800.550537109375 343.5400085449219 C 800.1705322265625 344.2533264160156 799.917236328125 345.0566711425781 799.79052734375 345.95001220703125 C 801.6305541992188 345.8900146484375 802.9238891601562 345.6233215332031 803.6705322265625 345.1499938964844 C 804.4238891601562 344.6766662597656 804.800537109375 344.00665283203125 804.800537109375 343.1400146484375 ZM 815.0735473632812 349.07000732421875 C 815.0735473632812 348.7699890136719 814.9935302734375 348.52667236328125 814.8335571289062 348.3399963378906 C 814.6735229492188 348.1533203125 814.5502319335938 348.01666259765625 814.4635620117188 347.92999267578125 C 814.3768920898438 347.84332275390625 814.2268676757812 347.73333740234375 814.0135498046875 347.6000061035156 C 813.806884765625 347.4599914550781 813.66357421875 347.3666687011719 813.5835571289062 347.32000732421875 C 813.1835327148438 347.0799865722656 812.796875 346.8599853515625 812.4235229492188 346.6600036621094 C 812.0435791015625 346.4599914550781 811.7535400390625 346.2966613769531 811.5535278320312 346.1700134277344 C 811.3535766601562 346.0433349609375 811.1035766601562 345.8500061035156 810.8035278320312 345.5899963378906 C 810.2568969726562 345.1300048828125 809.9835205078125 344.5299987792969 809.9835205078125 343.7900085449219 C 809.9835205078125 342.7166748046875 810.3869018554688 341.89666748046875 811.1935424804688 341.3299865722656 C 812.0068969726562 340.7633361816406 812.9968872070312 340.4800109863281 814.16357421875 340.4800109863281 C 815.3302001953125 340.4800109863281 816.3935546875 340.79998779296875 817.3535766601562 341.44000244140625 C 816.9868774414062 342.1266784667969 816.7069091796875 342.86334228515625 816.5135498046875 343.6499938964844 L 816.41357421875 344.010009765625 C 816.0935668945312 344.1499938964844 815.7035522460938 344.2200012207031 815.2435302734375 344.2200012207031 C 815.383544921875 343.5666809082031 815.4535522460938 343.1533203125 815.4535522460938 342.9800109863281 C 815.4535522460938 342.4666748046875 815.2802124023438 342.1533203125 814.9335327148438 342.0400085449219 L 812.6035766601562 342.0400085449219 C 811.8368530273438 342.1533203125 811.4535522460938 342.6000061035156 811.4535522460938 343.3800048828125 C 811.4535522460938 343.6533203125 811.5868530273438 343.92999267578125 811.8535766601562 344.2099914550781 C 812.1268920898438 344.489990234375 812.4002075195312 344.71331787109375 812.6735229492188 344.8800048828125 C 812.9468994140625 345.0533447265625 813.3335571289062 345.26666259765625 813.8335571289062 345.5199890136719 C 814.3402099609375 345.7733459472656 814.7601928710938 346.010009765625 815.0935668945312 346.2300109863281 C 815.4335327148438 346.4433288574219 815.7735595703125 346.7466735839844 816.113525390625 347.1400146484375 C 816.460205078125 347.5333251953125 816.633544921875 347.92999267578125 816.633544921875 348.3299865722656 C 816.633544921875 349.57666015625 816.2268676757812 350.5400085449219 815.41357421875 351.2200012207031 C 814.5935668945312 351.8999938964844 813.4868774414062 352.239990234375 812.0935668945312 352.239990234375 C 811.2468872070312 352.239990234375 810.5235595703125 352.1066589355469 809.9235229492188 351.8399963378906 C 809.3235473632812 351.5799865722656 808.9368896484375 351.32000732421875 808.7635498046875 351.05999755859375 L 808.4935302734375 350.67999267578125 C 808.8468627929688 350.0733337402344 809.1035766601562 349.4166564941406 809.2635498046875 348.7099914550781 L 809.3335571289062 348.3999938964844 C 809.653564453125 348.2533264160156 810.046875 348.17999267578125 810.5135498046875 348.17999267578125 C 810.3668823242188 348.7133483886719 810.2935791015625 349.1700134277344 810.2935791015625 349.54998779296875 C 810.2935791015625 350.1099853515625 810.750244140625 350.4866638183594 811.66357421875 350.67999267578125 L 814.16357421875 350.67999267578125 C 814.7702026367188 350.32666015625 815.0735473632812 349.7900085449219 815.0735473632812 349.07000732421875 ZM 825.6091918945312 340.7200012207031 C 825.6091918945312 341.1066589355469 825.5291748046875 341.586669921875 825.3692016601562 342.1600036621094 L 822.6091918945312 342.1600036621094 C 822.302490234375 345.02667236328125 822.1091918945312 347.82666015625 822.0291748046875 350.55999755859375 L 824.9091796875 350.55999755859375 C 824.9091796875 350.9266662597656 824.8291625976562 351.2699890136719 824.669189453125 351.5899963378906 C 823.2825317382812 351.7166748046875 822.1558227539062 351.97332763671875 821.2891845703125 352.3599853515625 C 820.3958740234375 352.3599853515625 819.9491577148438 352 819.9491577148438 351.2799987792969 C 820.4558715820312 347.3733215332031 820.7758178710938 344.3333435058594 820.9091796875 342.1600036621094 L 819.6591796875 342.1600036621094 C 819.6591796875 341.7933349609375 819.7391967773438 341.45001220703125 819.899169921875 341.1300048828125 C 819.9324951171875 341.1099853515625 819.975830078125 341.0899963378906 820.0291748046875 341.07000732421875 C 820.08251953125 341.0433349609375 820.189208984375 340.9666748046875 820.3491821289062 340.8399963378906 C 820.5091552734375 340.71331787109375 820.6558227539062 340.55999755859375 820.7891845703125 340.3800048828125 C 821.1358642578125 339.88665771484375 821.3591918945312 339.22332763671875 821.4591674804688 338.3900146484375 C 821.9725341796875 338.10333251953125 822.5091552734375 337.9599914550781 823.0691528320312 337.9599914550781 C 822.9891967773438 338.8733215332031 822.8825073242188 339.8333435058594 822.7492065429688 340.8399963378906 L 825.6091918945312 340.7200012207031 Z" transform="matrix(8.274526596069336, 0, 0, 8.274526596069336, -5509.90087890625, -2376.02001953125)" style="fill: rgb(51, 51, 51); white-space: pre; color: rgb(51, 51, 51);"/></svg>